<svg width="48" height="48" viewBox="0 0 48 48" fill="none" xmlns="http://www.w3.org/2000/svg">
<g clip-path="url(#clip0_97_2)">
<path d="M26.8113 8.52938L24.3755 21.6515L33.1998 21.6819L21.1883 39.4709L23.6242 25.0345L14.8004 25.003L26.8113 8.52938ZM26.813 6.31574C26.7547 6.31574 26.6964 6.31792 26.6392 6.32231C26.2582 6.35389 26.0055 6.4845 25.706 6.69093C25.5374 6.80622 25.3853 6.94519 25.2542 7.10377C25.2149 7.15137 25.1778 7.20087 25.143 7.25209L13.0457 23.6681C12.5681 24.3394 12.4979 25.2255 12.8649 25.9659C13.2314 26.7064 13.9725 27.1757 14.7848 27.1818L21.0167 27.2283L19.0574 39.0642C18.8712 40.0814 19.4001 41.0953 20.3312 41.5037C20.6018 41.6229 20.8932 41.6843 21.1877 41.6841C21.8662 41.6841 22.4238 41.3587 22.8421 40.771L34.9545 22.9819C35.4322 22.3105 35.5018 21.4234 35.1353 20.6841C34.7688 19.9436 34.0278 19.4742 33.2154 19.4682L26.9836 19.4571L28.9218 9.05011C28.9629 8.87973 28.9835 8.70485 28.9833 8.52934C28.9833 7.33175 28.0533 6.35552 26.8896 6.31678C26.8638 6.31567 26.8384 6.31567 26.813 6.31567L26.813 6.31574Z" fill="#37A2EB"/>
<circle cx="24" cy="24" r="23.0526" stroke="#37A2EB" stroke-width="1.89474"/>
</g>
<defs>
<clipPath id="clip0_97_2">
<rect width="48" height="48" fill="white"/>
</clipPath>
</defs>
</svg>
